HIERARCHY
ROOT root
{
  OFFSET 0 10 0
  CHANNELS 6 Xposition Yposition Zposition Zrotation Xrotation Yrotation
  JOINT foot_0_0
  {
    OFFSET 0 -7.5 0
    CHANNELS 3 Zrotation Xrotation Yrotation
    JOINT foot_0_1
    {
      OFFSET 3.62407 -2.5 3.82084
      CHANNELS 3 Zrotation Xrotation Yrotation
      End Site
      {
        OFFSET 0.45695 0 5.01038
      }
    }
  }
  JOINT foot_1_0
  {
    OFFSET 0 -7.5 0
    CHANNELS 3 Zrotation Xrotation Yrotation
    JOINT foot_1_1
    {
      OFFSET -3.62407 -2.5 3.82084
      CHANNELS 3 Zrotation Xrotation Yrotation
      End Site
      {
        OFFSET -0.45695 0 5.01038
      }
    }
  }
  JOINT foot_2_0
  {
    OFFSET 0 -7.5 0
    CHANNELS 3 Zrotation Xrotation Yrotation
    JOINT foot_2_1
    {
      OFFSET 0 -2.5 -2.5
      CHANNELS 3 Zrotation Xrotation Yrotation
      End Site
      {
        OFFSET 0 0 -2.5
      }
    }
  }
}
MOTION
Frames:	139
Frame Time:	0.0416667
0 10 0 0 0 -0 0 0 -0 0 44.9866 -0 0 0 -0 0 44.9866 -0 0 0 -0 -0 -44.9866 -0 
0 10 0 0 0 -0 0 0 -0 0 44.9467 -0 0 0 -0 0 44.9467 -0 0 0 -0 -0 -44.9467 -0 
0 10 0 0 0 -0 0 0 -0 0 44.8809 -0 0 0 -0 0 44.8809 -0 0 0 -0 -0 -44.8809 -0 
0 10 0 0 0 -0 0 0 -0 0 44.7898 -0 0 0 -0 0 44.7898 -0 0 0 -0 -0 -44.7898 -0 
0 10 0 0 0 -0 0 0 -0 0 44.6738 -0 0 0 -0 0 44.6738 -0 0 0 -0 -0 -44.6738 -0 
0 10 0 0 0 -0 0 0 -0 0 44.5334 -0 0 0 -0 0 44.5334 -0 0 0 -0 -0 -44.5334 -0 
0 10 0 0 0 -0 0 0 -0 0 44.3694 -0 0 0 -0 0 44.3694 -0 0 0 -0 -0 -44.3694 -0 
0 10 0 0 0 -0 0 0 -0 0 44.1821 -0 0 0 -0 0 44.1821 -0 0 0 -0 -0 -44.1821 -0 
0 10 0 0 0 -0 0 0 -0 0 43.9721 -0 0 0 -0 0 43.9721 -0 0 0 -0 -0 -43.9721 -0 
0 10 0 0 0 -0 0 0 -0 0 43.74 -0 0 0 -0 0 43.74 -0 0 0 -0 -0 -43.74 -0 
0 10 0 0 0 -0 0 0 -0 0 43.4863 -0 0 0 -0 0 43.4863 -0 0 0 -0 -0 -43.4863 -0 
0 10 0 0 0 -0 0 0 -0 0 43.2115 -0 0 0 -0 0 43.2115 -0 0 0 -0 -0 -43.2115 -0 
0 10 0 0 0 -0 0 0 -0 0 42.9162 -0 0 0 -0 0 42.9162 -0 0 0 -0 -0 -42.9162 -0 
0 10 0 0 0 -0 0 0 -0 0 42.601 -0 0 0 -0 0 42.601 -0 0 0 -0 -0 -42.601 -0 
0 10 0 0 0 -0 0 0 -0 0 42.2663 -0 0 0 -0 0 42.2663 -0 0 0 -0 -0 -42.2663 -0 
0 10 0 0 0 -0 0 0 -0 0 41.9126 -0 0 0 -0 0 41.9126 -0 0 0 -0 -0 -41.9126 -0 
0 10 0 0 0 -0 0 0 -0 0 41.5407 -0 0 0 -0 0 41.5407 -0 0 0 -0 -0 -41.5407 -0 
0 10 0 0 0 -0 0 0 -0 0 41.1509 -0 0 0 -0 0 41.1509 -0 0 0 -0 -0 -41.1509 -0 
0 10 0 0 0 -0 0 0 -0 0 40.7438 -0 0 0 -0 0 40.7438 -0 0 0 -0 -0 -40.7438 -0 
0 10 0 0 0 -0 0 0 -0 0 40.32 -0 0 0 -0 0 40.32 -0 0 0 -0 -0 -40.32 -0 
0 10 0 0 0 -0 0 0 -0 0 39.88 -0 0 0 -0 0 39.88 -0 0 0 -0 -0 -39.88 -0 
0 10 0 0 0 -0 0 0 -0 0 39.4243 -0 0 0 -0 0 39.4243 -0 0 0 -0 -0 -39.4243 -0 
0 10 0 0 0 -0 0 0 -0 0 38.9535 -0 0 0 -0 0 38.9535 -0 0 0 -0 -0 -38.9535 -0 
0 10 0 0 0 -0 0 0 -0 0 38.4682 -0 0 0 -0 0 38.4682 -0 0 0 -0 -0 -38.4682 -0 
0 10 0 0 0 -0 0 0 -0 0 37.9688 -0 0 0 -0 0 37.9688 -0 0 0 -0 -0 -37.9688 -0 
0 10 0 0 0 -0 0 0 -0 0 37.4558 -0 0 0 -0 0 37.4558 -0 0 0 -0 -0 -37.4558 -0 
0 10 0 0 0 -0 0 0 -0 0 36.93 -0 0 0 -0 0 36.93 -0 0 0 -0 -0 -36.93 -0 
0 10 0 0 0 -0 0 0 -0 0 36.3917 -0 0 0 -0 0 36.3917 -0 0 0 -0 -0 -36.3917 -0 
0 10 0 0 0 -0 0 0 -0 0 35.8415 -0 0 0 -0 0 35.8415 -0 0 0 -0 -0 -35.8415 -0 
0 10 0 0 0 -0 0 0 -0 0 35.28 -0 0 0 -0 0 35.28 -0 0 0 -0 -0 -35.28 -0 
0 10 0 0 0 -0 0 0 -0 0 34.7077 -0 0 0 -0 0 34.7077 -0 0 0 -0 -0 -34.7077 -0 
0 10 0 0 0 -0 0 0 -0 0 34.1251 -0 0 0 -0 0 34.1251 -0 0 0 -0 -0 -34.1251 -0 
0 10 0 0 0 -0 0 0 -0 0 33.5328 -0 0 0 -0 0 33.5328 -0 0 0 -0 -0 -33.5328 -0 
0 10 0 0 0 -0 0 0 -0 0 32.9314 -0 0 0 -0 0 32.9314 -0 0 0 -0 -0 -32.9314 -0 
0 10 0 0 0 -0 0 0 -0 0 32.3213 -0 0 0 -0 0 32.3213 -0 0 0 -0 -0 -32.3213 -0 
0 10 0 0 0 -0 0 0 -0 0 31.703 -0 0 0 -0 0 31.703 -0 0 0 -0 -0 -31.703 -0 
0 10 0 0 0 -0 0 0 -0 0 31.0773 -0 0 0 -0 0 31.0773 -0 0 0 -0 -0 -31.0773 -0 
0 10 0 0 0 -0 0 0 -0 0 30.4445 -0 0 0 -0 0 30.4445 -0 0 0 -0 -0 -30.4445 -0 
0 10 0 0 0 -0 0 0 -0 0 29.8052 -0 0 0 -0 0 29.8052 -0 0 0 -0 -0 -29.8052 -0 
0 10 0 0 0 -0 0 0 -0 0 29.16 -0 0 0 -0 0 29.16 -0 0 0 -0 -0 -29.16 -0 
0 10 0 0 0 -0 0 0 -0 0 28.5094 -0 0 0 -0 0 28.5094 -0 0 0 -0 -0 -28.5094 -0 
0 10 0 0 0 -0 0 0 -0 0 27.8539 -0 0 0 -0 0 27.8539 -0 0 0 -0 -0 -27.8539 -0 
0 10 0 0 0 -0 0 0 -0 0 27.1941 -0 0 0 -0 0 27.1941 -0 0 0 -0 -0 -27.1941 -0 
0 10 0 0 0 -0 0 0 -0 0 26.5306 -0 0 0 -0 0 26.5306 -0 0 0 -0 -0 -26.5306 -0 
0 10 0 0 0 -0 0 0 -0 0 25.8638 -0 0 0 -0 0 25.8638 -0 0 0 -0 -0 -25.8638 -0 
0 10 0 0 0 -0 0 0 -0 0 25.1942 -0 0 0 -0 0 25.1942 -0 0 0 -0 -0 -25.1942 -0 
0 10 0 0 0 -0 0 0 -0 0 24.5226 -0 0 0 -0 0 24.5226 -0 0 0 -0 -0 -24.5226 -0 
0 10 0 0 0 -0 0 0 -0 0 23.8493 -0 0 0 -0 0 23.8493 -0 0 0 -0 -0 -23.8493 -0 
0 10 0 0 0 -0 0 0 -0 0 23.1749 -0 0 0 -0 0 23.1749 -0 0 0 -0 -0 -23.1749 -0 
0 10 0 0 0 -0 0 0 -0 0 22.5 -0 0 0 -0 0 22.5 -0 0 0 -0 -0 -22.5 -0 
0 10 0 0 0 -0 0 0 -0 0 21.8251 -0 0 0 -0 0 21.8251 -0 0 0 -0 -0 -21.8251 -0 
0 10 0 0 0 -0 0 0 -0 0 21.1507 -0 0 0 -0 0 21.1507 -0 0 0 -0 -0 -21.1507 -0 
0 10 0 0 0 -0 0 0 -0 0 20.4774 -0 0 0 -0 0 20.4774 -0 0 0 -0 -0 -20.4774 -0 
0 10 0 0 0 -0 0 0 -0 0 19.8058 -0 0 0 -0 0 19.8058 -0 0 0 -0 -0 -19.8058 -0 
0 10 0 0 0 -0 0 0 -0 0 19.1362 -0 0 0 -0 0 19.1362 -0 0 0 -0 -0 -19.1362 -0 
0 10 0 0 0 -0 0 0 -0 0 18.4694 -0 0 0 -0 0 18.4694 -0 0 0 -0 -0 -18.4694 -0 
0 10 0 0 0 -0 0 0 -0 0 17.8059 -0 0 0 -0 0 17.8059 -0 0 0 -0 -0 -17.8059 -0 
0 10 0 0 0 -0 0 0 -0 0 17.1461 -0 0 0 -0 0 17.1461 -0 0 0 -0 -0 -17.1461 -0 
0 10 0 0 0 -0 0 0 -0 0 16.4906 -0 0 0 -0 0 16.4906 -0 0 0 -0 -0 -16.4906 -0 
0 10 0 0 0 -0 0 0 -0 0 15.84 -0 0 0 -0 0 15.84 -0 0 0 -0 -0 -15.84 -0 
0 10 0 0 0 -0 0 0 -0 0 15.1948 -0 0 0 -0 0 15.1948 -0 0 0 -0 -0 -15.1948 -0 
0 10 0 0 0 -0 0 0 -0 0 14.5555 -0 0 0 -0 0 14.5555 -0 0 0 -0 -0 -14.5555 -0 
0 10 0 0 0 -0 0 0 -0 0 13.9227 -0 0 0 -0 0 13.9227 -0 0 0 -0 -0 -13.9227 -0 
0 10 0 0 0 -0 0 0 -0 0 13.297 -0 0 0 -0 0 13.297 -0 0 0 -0 -0 -13.297 -0 
0 10 0 0 0 -0 0 0 -0 0 12.6788 -0 0 0 -0 0 12.6788 -0 0 0 -0 -0 -12.6788 -0 
0 10 0 0 0 -0 0 0 -0 0 12.0686 -0 0 0 -0 0 12.0686 -0 0 0 -0 -0 -12.0686 -0 
0 10 0 0 0 -0 0 0 -0 0 11.4672 -0 0 0 -0 0 11.4672 -0 0 0 -0 -0 -11.4672 -0 
0 10 0 0 0 -0 0 0 -0 0 10.8749 -0 0 0 -0 0 10.8749 -0 0 0 -0 -0 -10.8749 -0 
0 10 0 0 0 -0 0 0 -0 0 10.2923 -0 0 0 -0 0 10.2923 -0 0 0 -0 -0 -10.2923 -0 
0 10 0 0 0 -0 0 0 -0 0 9.72 -0 0 0 -0 0 9.72 -0 0 0 -0 -0 -9.72 -0 
0 10 0 0 0 -0 0 0 -0 0 9.15849 -0 0 0 -0 0 9.15849 -0 0 0 -0 -0 -9.15849 -0 
0 10 0 0 0 -0 0 0 -0 0 8.60832 -0 0 0 -0 0 8.60832 -0 0 0 -0 -0 -8.60832 -0 
0 10 0 0 0 -0 0 0 -0 0 8.07003 -0 0 0 -0 0 8.07003 -0 0 0 -0 -0 -8.07003 -0 
0 10 0 0 0 -0 0 0 -0 0 7.54416 -0 0 0 -0 0 7.54416 -0 0 0 -0 -0 -7.54416 -0 
0 10 0 0 0 -0 0 0 -0 0 7.03125 -0 0 0 -0 0 7.03125 -0 0 0 -0 -0 -7.03125 -0 
0 10 0 0 0 -0 0 0 -0 0 6.53184 -0 0 0 -0 0 6.53184 -0 0 0 -0 -0 -6.53184 -0 
0 10 0 0 0 -0 0 0 -0 0 6.04647 -0 0 0 -0 0 6.04647 -0 0 0 -0 -0 -6.04647 -0 
0 10 0 0 0 -0 0 0 -0 0 5.57568 -0 0 0 -0 0 5.57568 -0 0 0 -0 -0 -5.57568 -0 
0 10 0 0 0 -0 0 0 -0 0 5.12001 -0 0 0 -0 0 5.12001 -0 0 0 -0 -0 -5.12001 -0 
0 10 0 0 0 -0 0 0 -0 0 4.68 -0 0 0 -0 0 4.68 -0 0 0 -0 -0 -4.68 -0 
0 10 0 0 0 -0 0 0 -0 0 4.25619 -0 0 0 -0 0 4.25619 -0 0 0 -0 -0 -4.25619 -0 
0 10 0 0 0 -0 0 0 -0 0 3.84912 -0 0 0 -0 0 3.84912 -0 0 0 -0 -0 -3.84912 -0 
0 10 0 0 0 -0 0 0 -0 0 3.45933 -0 0 0 -0 0 3.45933 -0 0 0 -0 -0 -3.45933 -0 
0 10 0 0 0 -0 0 0 -0 0 3.08736 -0 0 0 -0 0 3.08736 -0 0 0 -0 -0 -3.08736 -0 
0 10 0 0 0 -0 0 0 -0 0 2.73375 -0 0 0 -0 0 2.73375 -0 0 0 -0 -0 -2.73375 -0 
0 10 0 0 0 -0 0 0 -0 0 2.39904 -0 0 0 -0 0 2.39904 -0 0 0 -0 -0 -2.39904 -0 
0 10 0 0 0 -0 0 0 -0 0 2.08377 -0 0 0 -0 0 2.08377 -0 0 0 -0 -0 -2.08377 -0 
0 10 0 0 0 -0 0 0 -0 0 1.78848 -0 0 0 -0 0 1.78848 -0 0 0 -0 -0 -1.78848 -0 
0 10 0 0 0 -0 0 0 -0 0 1.51371 -0 0 0 -0 0 1.51371 -0 0 0 -0 -0 -1.51371 -0 
0 10 0 0 0 -0 0 0 -0 0 1.26 -0 0 0 -0 0 1.26 -0 0 0 -0 -0 -1.26 -0 
0 10 0 0 0 -0 0 0 -0 0 1.02789 -0 0 0 -0 0 1.02789 -0 0 0 -0 -0 -1.02789 -0 
0 10 0 0 0 -0 0 0 -0 0 0.81792 -0 0 0 -0 0 0.81792 -0 0 0 -0 -0 -0.81792 -0 
0 10 0 0 0 -0 0 0 -0 0 0.63063 -0 0 0 -0 0 0.63063 -0 0 0 -0 -0 -0.63063 -0 
0 10 0 0 0 -0 0 0 -0 0 0.46656 -0 0 0 -0 0 0.46656 -0 0 0 -0 -0 -0.46656 -0 
0 10 0 0 0 -0 0 0 -0 0 0.32625 -0 0 0 -0 0 0.32625 -0 0 0 -0 -0 -0.32625 -0 
0 10 0 0 0 -0 0 0 -0 0 0.21024 -0 0 0 -0 0 0.21024 -0 0 0 -0 -0 -0.21024 -0 
0 10 0 0 0 -0 0 0 -0 0 0.11907 -0 0 0 -0 0 0.11907 -0 0 0 -0 -0 -0.11907 -0 
0 10 0 0 0 -0 0 0 -0 0 0.05328 -0 0 0 -0 0 0.05328 -0 0 0 -0 -0 -0.05328 -0 
0 10 0 0 0 -0 0 0 -0 0 0.01341 -0 0 0 -0 0 0.01341 -0 0 0 -0 -0 -0.01341 -0 
0 10 0 0 0 -0 0 0 -0 0 0 -0 0 0 -0 0 0 -0 0 0 -0 0 0 -0 
0 10 0 0 0 -0 0 0 -0 0 0 -0 0 0 -0 0 0 -0 0 0 -0 0 0 -0 
0 10 0 0 0 -0 0 0 -0 0 0 -0 0 0 -0 0 0 -0 0 0 -0 0 0 -0 
0 10 0 0 0 -0 0 0 -0 0 0 -0 0 0 -0 0 0 -0 0 0 -0 0 0 -0 
0 10 0 0 0 -0 0 0 -0 0 0 -0 0 0 -0 0 0 -0 0 0 -0 0 0 -0 
0 10 0 0 0 -0 0 0 -0 0 0 -0 0 0 -0 0 0 -0 0 0 -0 0 0 -0 
0 10 0 0 0 -0 0 0 -0 0 0 -0 0 0 -0 0 0 -0 0 0 -0 0 0 -0 
0 10 0 0 0 -0 0 0 -0 0 0 -0 0 0 -0 0 0 -0 0 0 -0 0 0 -0 
0 10 0 0 0 -0 0 0 -0 0 0 -0 0 0 -0 0 0 -0 0 0 -0 0 0 -0 
0 10 0 0 0 -0 0 0 -0 0 0 -0 0 0 -0 0 0 -0 0 0 -0 0 0 -0 
0 10 0 0 0 -0 0 0 -0 0 0 -0 0 0 -0 0 0 -0 0 0 -0 0 0 -0 
0 10 0 0 0 -0 0 0 -0 0 0 -0 0 0 -0 0 0 -0 0 0 -0 0 0 -0 
0 10 0 0 0 -0 0 0 -0 0 0 -0 0 0 -0 0 0 -0 0 0 -0 0 0 -0 
0 10 0 0 0 -0 0 0 -0 0 0 -0 0 0 -0 0 0 -0 0 0 -0 0 0 -0 
0 10 0 0 0 -0 0 0 -0 0 0 -0 0 0 -0 0 0 -0 0 0 -0 0 0 -0 
0 10 0 0 0 -0 0 0 -0 0 0 -0 0 0 -0 0 0 -0 0 0 -0 0 0 -0 
0 10 0 0 0 -0 0 0 -0 0 0 -0 0 0 -0 0 0 -0 0 0 -0 0 0 -0 
0 10 0 0 0 -0 0 0 -0 0 0 -0 0 0 -0 0 0 -0 0 0 -0 0 0 -0 
0 10 0 0 0 -0 0 0 -0 0 0 -0 0 0 -0 0 0 -0 0 0 -0 0 0 -0 
0 10 0 0 0 -0 0 0 -0 0 0 -0 0 0 -0 0 0 -0 0 0 -0 0 0 -0 
0 10 0 0 0 -0 0 0 -0 0 0 -0 0 0 -0 0 0 -0 0 0 -0 0 0 -0 
0 10 0 0 0 -0 0 0 -0 0 0 -0 0 0 -0 0 0 -0 0 0 -0 0 0 -0 
0 10 0 0 0 -0 0 0 -0 0 0 -0 0 0 -0 0 0 -0 0 0 -0 0 0 -0 
0 10 0 0 0 -0 0 0 -0 0 0 -0 0 0 -0 0 0 -0 0 0 -0 0 0 -0 
0 10 0 0 0 -0 0 0 -0 0 0 -0 0 0 -0 0 0 -0 0 0 -0 0 0 -0 
0 10 0 0 0 -0 0 0 -0 0 0 -0 0 0 -0 0 0 -0 0 0 -0 0 0 -0 
0 10 0 0 0 -0 0 0 -0 0 0 -0 0 0 -0 0 0 -0 0 0 -0 0 0 -0 
0 10 0 0 0 -0 0 0 -0 0 0 -0 0 0 -0 0 0 -0 0 0 -0 0 0 -0 
0 10 0 0 0 -0 0 0 -0 0 0 -0 0 0 -0 0 0 -0 0 0 -0 0 0 -0 
0 10 0 0 0 -0 0 0 -0 0 0 -0 0 0 -0 0 0 -0 0 0 -0 0 0 -0 
0 10 0 0 0 -0 0 0 -0 0 0 -0 0 0 -0 0 0 -0 0 0 -0 0 0 -0 
0 10 0 0 0 -0 0 0 -0 0 0 -0 0 0 -0 0 0 -0 0 0 -0 0 0 -0 
0 10 0 0 0 -0 0 0 -0 0 0 -0 0 0 -0 0 0 -0 0 0 -0 0 0 -0 
0 10 0 0 0 -0 0 0 -0 0 0 -0 0 0 -0 0 0 -0 0 0 -0 0 0 -0 
0 10 0 0 0 -0 0 0 -0 0 0 -0 0 0 -0 0 0 -0 0 0 -0 0 0 -0 
0 10 0 0 0 -0 0 0 -0 0 0 -0 0 0 -0 0 0 -0 0 0 -0 0 0 -0 
0 10 0 0 0 -0 0 0 -0 0 0 -0 0 0 -0 0 0 -0 0 0 -0 0 0 -0 
0 10 0 0 0 -0 0 0 -0 0 0 -0 0 0 -0 0 0 -0 0 0 -0 0 0 -0 
0 10 0 0 0 -0 0 0 -0 0 0 -0 0 0 -0 0 0 -0 0 0 -0 0 0 -0 
0 10 0 0 0 -0 0 0 -0 0 0 -0 0 0 -0 0 0 -0 0 0 -0 0 0 -0 
